<svg width="13" height="12" viewBox="0 0 13 12" fill="none" xmlns="http://www.w3.org/2000/svg">
<path d="M6.5 1.4487C5.69969 0.76051 4.53944 0.658135 3.48319 0.76376C2.25306 0.888072 1.01156 1.30976 0.238063 1.66157C0.16709 1.69385 0.106905 1.74587 0.0646921 1.81142C0.0224792 1.87698 2.15893e-05 1.95329 0 2.03126L0 10.9688C1.88191e-05 11.0367 0.0170927 11.1036 0.0496576 11.1633C0.0822226 11.2229 0.129238 11.2735 0.186396 11.3103C0.243555 11.3471 0.30903 11.3689 0.376824 11.3738C0.444618 11.3788 0.512564 11.3666 0.574438 11.3384C1.29106 11.0134 2.44563 10.6226 3.56444 10.5097C4.70925 10.3943 5.66881 10.5804 6.18313 11.2223C6.22119 11.2697 6.26943 11.308 6.32427 11.3343C6.37912 11.3606 6.43917 11.3743 6.5 11.3743C6.56083 11.3743 6.62088 11.3606 6.67573 11.3343C6.73057 11.308 6.77881 11.2697 6.81688 11.2223C7.33119 10.5804 8.29075 10.3943 9.43475 10.5097C10.5544 10.6226 11.7098 11.0134 12.4256 11.3384C12.4874 11.3666 12.5554 11.3788 12.6232 11.3738C12.691 11.3689 12.7564 11.3471 12.8136 11.3103C12.8708 11.2735 12.9178 11.2229 12.9503 11.1633C12.9829 11.1036 13 11.0367 13 10.9688V2.03126C13 1.95329 12.9775 1.87698 12.9353 1.81142C12.8931 1.74587 12.8329 1.69385 12.7619 1.66157C11.9884 1.30976 10.7469 0.888072 9.51681 0.76376C8.46056 0.657322 7.30031 0.76051 6.5 1.4487Z" fill="#71878E"/>
</svg>
