<svg width="14" height="12" viewBox="0 0 14 12" fill="none" xmlns="http://www.w3.org/2000/svg">
<path d="M13.02 3.18255C12.9494 2.90622 12.8404 2.64114 12.6963 2.39505C12.5578 2.13905 12.3807 1.9059 12.1713 1.7038C11.8676 1.40117 11.508 1.16045 11.1125 0.995051C10.3164 0.668316 9.42363 0.668316 8.62752 0.995051C8.25369 1.15328 7.91023 1.37534 7.61252 1.6513L7.56877 1.7038L7.00002 2.27255L6.43127 1.7038L6.38752 1.6513C6.0898 1.37534 5.74635 1.15328 5.37252 0.995051C4.5764 0.668316 3.68363 0.668316 2.88752 0.995051C2.492 1.16045 2.13241 1.40117 1.82877 1.7038C1.41346 2.1079 1.11947 2.62012 0.980016 3.18255C0.905829 3.46817 0.870511 3.76249 0.875016 4.05755C0.875016 4.33493 0.910016 4.61143 0.980016 4.88005C1.05337 5.15134 1.15913 5.41281 1.29502 5.6588C1.44177 5.91168 1.62123 6.1441 1.82877 6.35005L7.00002 11.5213L12.1713 6.35005C12.3786 6.14618 12.5563 5.91255 12.6963 5.6588C12.9805 5.17327 13.1286 4.62013 13.125 4.05755C13.1296 3.76249 13.0942 3.46816 13.02 3.18255V3.18255ZM12.145 4.6088C12.0402 5.0086 11.832 5.37376 11.5413 5.66755L6.98252 10.2176L2.42377 5.66755C2.27521 5.51794 2.14588 5.3504 2.03877 5.1688C1.93797 4.98914 1.85868 4.79825 1.80252 4.60005C1.75768 4.40188 1.73421 4.19947 1.73252 3.9963C1.7337 3.78732 1.75717 3.57906 1.80252 3.37505C1.85703 3.17628 1.93641 2.98519 2.03877 2.8063C2.14377 2.62255 2.27327 2.4563 2.42377 2.30755C2.64855 2.08578 2.91262 1.90775 3.20252 1.78255C3.78668 1.54886 4.43835 1.54886 5.02252 1.78255C5.31127 1.90243 5.57202 2.0783 5.79252 2.2988L6.98252 3.49755L8.17252 2.2988C8.39286 2.07791 8.65449 1.9025 8.94252 1.78255C9.52668 1.54886 10.1784 1.54886 10.7625 1.78255C11.0521 1.90768 11.3164 2.08618 11.5413 2.30755C11.6935 2.45193 11.8213 2.61993 11.9175 2.8063C12.1202 3.16371 12.2258 3.56794 12.2238 3.9788C12.2357 4.19022 12.218 4.40227 12.1713 4.6088H12.145V4.6088Z" fill="#FF8200"/>
</svg>
