<svg width="16" height="14" viewBox="0 0 16 14" fill="none" xmlns="http://www.w3.org/2000/svg">
<g id="ebook">
<path id="Vector" d="M8 0.887129C7.015 0.0401288 5.587 -0.0858711 4.287 0.0441289C2.773 0.197129 1.245 0.716129 0.293 1.14913C0.205649 1.18886 0.131575 1.25288 0.079621 1.33356C0.0276667 1.41424 2.65714e-05 1.50817 0 1.60413L0 12.6041C2.3162e-05 12.6878 0.0210371 12.7701 0.0611171 12.8435C0.101197 12.917 0.159062 12.9792 0.229411 13.0244C0.29976 13.0697 0.380345 13.0966 0.463783 13.1027C0.547222 13.1087 0.630848 13.0938 0.707 13.0591C1.589 12.6591 3.01 12.1781 4.387 12.0391C5.796 11.8971 6.977 12.1261 7.61 12.9161C7.65685 12.9745 7.71622 13.0217 7.78372 13.054C7.85122 13.0864 7.92513 13.1032 8 13.1032C8.07487 13.1032 8.14878 13.0864 8.21628 13.054C8.28378 13.0217 8.34315 12.9745 8.39 12.9161C9.023 12.1261 10.204 11.8971 11.612 12.0391C12.99 12.1781 14.412 12.6591 15.293 13.0591C15.3692 13.0938 15.4528 13.1087 15.5362 13.1027C15.6197 13.0966 15.7002 13.0697 15.7706 13.0244C15.8409 12.9792 15.8988 12.917 15.9389 12.8435C15.979 12.7701 16 12.6878 16 12.6041V1.60413C16 1.50817 15.9723 1.41424 15.9204 1.33356C15.8684 1.25288 15.7944 1.18886 15.707 1.14913C14.755 0.716129 13.227 0.197129 11.713 0.0441289C10.413 -0.0868711 8.985 0.0401288 8 0.887129Z" fill="#FF8200"/>
</g>
</svg>
