<svg width="15" height="14" viewBox="0 0 15 14" fill="none" xmlns="http://www.w3.org/2000/svg">
<path d="M14.0691 5.00733L9.87218 4.39738L7.99605 0.593859C7.9448 0.489721 7.8605 0.405419 7.75636 0.354176C7.49519 0.225243 7.17782 0.332687 7.04723 0.593859L5.1711 4.39738L0.974168 5.00733C0.858459 5.02386 0.752668 5.07841 0.671672 5.16106C0.573752 5.2617 0.519793 5.3971 0.521653 5.53751C0.523513 5.67792 0.581038 5.81184 0.681589 5.90986L3.71812 8.87035L3.00073 13.0508C2.9839 13.148 2.99466 13.248 3.03179 13.3395C3.06891 13.4309 3.13092 13.5101 3.21077 13.5681C3.29062 13.6261 3.38512 13.6606 3.48356 13.6676C3.582 13.6746 3.68044 13.6539 3.76771 13.6078L7.52164 11.6341L11.2756 13.6078C11.3781 13.6624 11.4971 13.6805 11.6111 13.6607C11.8987 13.6111 12.0921 13.3384 12.0426 13.0508L11.3252 8.87035L14.3617 5.90986C14.4443 5.82886 14.4989 5.72307 14.5154 5.60736C14.56 5.31809 14.3584 5.05031 14.0691 5.00733V5.00733Z" fill="white"/>
</svg>
