<svg width="13" height="11" viewBox="0 0 13 11" fill="none" xmlns="http://www.w3.org/2000/svg">
<path d="M8.66665 2.2C8.66665 2.78348 8.43837 3.34306 8.03204 3.75564C7.62572 4.16822 7.07462 4.4 6.49998 4.4C5.92534 4.4 5.37424 4.16822 4.96792 3.75564C4.56159 3.34306 4.33331 2.78348 4.33331 2.2C4.33331 1.61652 4.56159 1.05695 4.96792 0.644365C5.37424 0.231785 5.92534 0 6.49998 0C7.07462 0 7.62572 0.231785 8.03204 0.644365C8.43837 1.05695 8.66665 1.61652 8.66665 2.2V2.2Z" fill="white"/>
<path d="M12.2778 3.66662C12.2778 4.0556 12.1256 4.42865 11.8547 4.70371C11.5839 4.97876 11.2165 5.13328 10.8334 5.13328C10.4503 5.13328 10.0829 4.97876 9.81198 4.70371C9.5411 4.42865 9.38892 4.0556 9.38892 3.66662C9.38892 3.27763 9.5411 2.90458 9.81198 2.62953C10.0829 2.35447 10.4503 2.19995 10.8334 2.19995C11.2165 2.19995 11.5839 2.35447 11.8547 2.62953C12.1256 2.90458 12.2778 3.27763 12.2778 3.66662V3.66662Z" fill="white"/>
<path d="M9.38886 8.80003C9.38886 8.02206 9.0845 7.27596 8.54273 6.72585C8.00095 6.17575 7.26615 5.8667 6.49997 5.8667C5.73379 5.8667 4.99899 6.17575 4.45722 6.72585C3.91545 7.27596 3.61108 8.02206 3.61108 8.80003V11H9.38886V8.80003Z" fill="white"/>
<path d="M3.61112 3.66662C3.61112 4.0556 3.45894 4.42865 3.18805 4.70371C2.91716 4.97876 2.54976 5.13328 2.16667 5.13328C1.78358 5.13328 1.41618 4.97876 1.1453 4.70371C0.874411 4.42865 0.722229 4.0556 0.722229 3.66662C0.722229 3.27763 0.874411 2.90458 1.1453 2.62953C1.41618 2.35447 1.78358 2.19995 2.16667 2.19995C2.54976 2.19995 2.91716 2.35447 3.18805 2.62953C3.45894 2.90458 3.61112 3.27763 3.61112 3.66662V3.66662Z" fill="white"/>
<path d="M10.8334 11V8.79996C10.8344 8.05437 10.648 7.32085 10.2917 6.6689C10.6119 6.58569 10.9466 6.57785 11.2702 6.64596C11.5938 6.71407 11.8979 6.85633 12.1591 7.0619C12.4204 7.26746 12.6319 7.5309 12.7777 7.83212C12.9234 8.13333 12.9995 8.46436 13 8.79996V11H10.8334Z" fill="white"/>
<path d="M2.70833 6.66898C2.3521 7.32095 2.16565 8.05446 2.16667 8.80005V11H1.91909e-07V8.80005C-0.000139005 8.46421 0.0754458 8.1328 0.220962 7.83121C0.366478 7.52962 0.578062 7.26586 0.839499 7.06015C1.10094 6.85444 1.40529 6.71223 1.72922 6.64443C2.05316 6.57662 2.38809 6.58502 2.70833 6.66898V6.66898Z" fill="white"/>
</svg>
