<svg width="12" height="11" viewBox="0 0 12 11" fill="none" xmlns="http://www.w3.org/2000/svg">
<path d="M11.8976 2.38293C11.8285 2.11223 11.7217 1.85256 11.5805 1.6115C11.4448 1.36072 11.2714 1.13232 11.0662 0.934345C10.7687 0.637885 10.4165 0.40208 10.0291 0.240052C9.24918 -0.0800174 8.37461 -0.0800174 7.59474 0.240052C7.22853 0.395058 6.89209 0.612589 6.60044 0.882916L6.55759 0.934345L6.00044 1.49149L5.44329 0.934345L5.40043 0.882916C5.10879 0.612589 4.77234 0.395058 4.40614 0.240052C3.62626 -0.0800174 2.7517 -0.0800174 1.97182 0.240052C1.58438 0.40208 1.23212 0.637885 0.93467 0.934345C0.527834 1.3302 0.239838 1.83197 0.103233 2.38293C0.0305593 2.66272 -0.00403878 2.95104 0.000374642 3.24008C0.000374642 3.5118 0.0346607 3.78266 0.103233 4.04581C0.175091 4.31156 0.278695 4.56769 0.411808 4.80867C0.555565 5.05639 0.731369 5.28407 0.93467 5.48582L6.00044 10.5516L11.0662 5.48582C11.2693 5.2861 11.4434 5.05725 11.5805 4.80867C11.8589 4.33304 12.004 3.79119 12.0005 3.24008C12.0049 2.95104 11.9703 2.66272 11.8976 2.38293V2.38293ZM11.0405 3.78009C10.9378 4.17174 10.7338 4.52945 10.4491 4.81724L5.98329 9.27443L1.51753 4.81724C1.37201 4.67068 1.24532 4.50656 1.14039 4.32867C1.04165 4.15267 0.963971 3.96567 0.908956 3.77152C0.865035 3.57739 0.842047 3.37911 0.840383 3.18008C0.841546 2.97536 0.864533 2.77135 0.908956 2.57151C0.962357 2.37679 1.04011 2.1896 1.14039 2.01436C1.24324 1.83435 1.3701 1.6715 1.51753 1.52578C1.73773 1.30853 1.99642 1.13413 2.2804 1.01149C2.85264 0.782563 3.49103 0.782563 4.06327 1.01149C4.34613 1.12892 4.60157 1.30121 4.81757 1.51721L5.98329 2.69151L7.14902 1.51721C7.36487 1.30082 7.62117 1.12899 7.90331 1.01149C8.47556 0.782563 9.11394 0.782563 9.68619 1.01149C9.96991 1.13406 10.2288 1.30892 10.4491 1.52578C10.5982 1.66721 10.7233 1.83178 10.8176 2.01436C11.0162 2.36447 11.1196 2.76046 11.1176 3.16294C11.1293 3.37005 11.112 3.57777 11.0662 3.78009H11.0405V3.78009Z" fill="#71878E"/>
</svg>
