<svg width="25" height="26" viewBox="0 0 25 26" fill="none" xmlns="http://www.w3.org/2000/svg">
<path d="M22.3282 19.6445C21.7139 19.0561 21.116 18.4508 20.5352 17.8292C20.0472 17.3334 19.7534 16.9727 19.7534 16.9727L16.0808 15.219C17.5511 13.5515 18.3626 11.4048 18.3631 9.18153C18.3631 4.11988 14.2445 0 9.18153 0C4.11857 0 0 4.11988 0 9.18153C0 14.2432 4.11857 18.3631 9.18153 18.3631C11.494 18.3631 13.6018 17.4974 15.219 16.0821L16.9727 19.7547C16.9727 19.7547 17.3334 20.0485 17.8292 20.5365C18.3368 21.0126 19.0045 21.6566 19.6445 22.3295L21.4258 24.1553L22.218 25.0026L25 22.2206L24.1527 21.4284C23.6556 20.9405 22.9919 20.2925 22.3282 19.6445V19.6445ZM9.18153 15.7398C5.56532 15.7398 2.62329 12.7977 2.62329 9.18153C2.62329 5.56532 5.56532 2.62329 9.18153 2.62329C12.7977 2.62329 15.7398 5.56532 15.7398 9.18153C15.7398 12.7977 12.7977 15.7398 9.18153 15.7398Z" fill="white"/>
</svg>
