<svg width="14" height="14" viewBox="0 0 14 14" fill="none" xmlns="http://www.w3.org/2000/svg">
<g id="play">
<path id="Vector" d="M7 0C3.13438 0 0 3.13438 0 7C0 10.8656 3.13438 14 7 14C10.8656 14 14 10.8656 14 7C14 3.13438 10.8656 0 7 0ZM7 12.8125C3.79063 12.8125 1.1875 10.2094 1.1875 7C1.1875 3.79063 3.79063 1.1875 7 1.1875C10.2094 1.1875 12.8125 3.79063 12.8125 7C12.8125 10.2094 10.2094 12.8125 7 12.8125Z" fill="#FF8200"/>
<path id="Vector_2" d="M10.2406 6.79843L5.61406 3.43906C5.57695 3.41186 5.53302 3.3955 5.48717 3.3918C5.44131 3.3881 5.39532 3.3972 5.35433 3.4181C5.31335 3.439 5.27897 3.47087 5.25503 3.51016C5.23109 3.54945 5.21853 3.59461 5.21875 3.64062V10.3594C5.21875 10.5641 5.45 10.6797 5.61406 10.5609L10.2406 7.20156C10.2726 7.17854 10.2986 7.14826 10.3165 7.11322C10.3345 7.07817 10.3438 7.03937 10.3438 7C10.3438 6.96063 10.3345 6.92182 10.3165 6.88677C10.2986 6.85173 10.2726 6.82145 10.2406 6.79843V6.79843ZM6.21562 8.89218V5.10781L8.82031 7L6.21562 8.89218V8.89218Z" fill="#FF8200"/>
</g>
</svg>
