<svg width="14" height="14" viewBox="0 0 14 14" fill="none" xmlns="http://www.w3.org/2000/svg">
<path id="Vector" d="M10.5 0H5.6875C5.44141 0 5.23405 0.0843099 5.06543 0.25293C4.89681 0.421549 4.8125 0.628906 4.8125 0.875H9.625V4.375H13.125V11.375H10.0625V12.25H13.125C13.3711 12.25 13.5785 12.1657 13.7471 11.9971C13.9157 11.8285 14 11.6211 14 11.375V3.5L10.5 0ZM10.5 3.5V1.23047L12.7559 3.5H10.5ZM0.875 1.75C0.628906 1.75 0.421549 1.83431 0.25293 2.00293C0.0843099 2.17155 0 2.37891 0 2.625V13.125C0 13.3711 0.0843099 13.5785 0.25293 13.7471C0.421549 13.9157 0.628906 14 0.875 14H8.3125C8.55859 14 8.76595 13.9157 8.93457 13.7471C9.10319 13.5785 9.1875 13.3711 9.1875 13.125V5.25L5.6875 1.75H0.875ZM8.3125 13.125H0.875V2.625H4.8125V6.125H8.3125V9.625V13.125ZM5.6875 5.25V2.98047L7.94336 5.25H5.6875Z" fill="#E77808"/>
</svg>
