<svg width="11" height="11" viewBox="0 0 11 11" fill="none" xmlns="http://www.w3.org/2000/svg">
<path d="M5.5 0C2.46272 0 0 2.46272 0 5.5C0 8.53728 2.46272 11 5.5 11C8.53728 11 11 8.53728 11 5.5C11 2.46272 8.53728 0 5.5 0ZM5.5 10.067C2.97835 10.067 0.933036 8.02165 0.933036 5.5C0.933036 2.97835 2.97835 0.933036 5.5 0.933036C8.02165 0.933036 10.067 2.97835 10.067 5.5C10.067 8.02165 8.02165 10.067 5.5 10.067Z" fill="#71878E"/>
<path d="M8.04621 5.34165L4.41105 2.70214C4.3819 2.68076 4.34738 2.66791 4.31135 2.665C4.27532 2.66209 4.23919 2.66925 4.20698 2.68567C4.17478 2.70209 4.14776 2.72713 4.12895 2.758C4.11015 2.78887 4.10028 2.82436 4.10045 2.86051V8.13954C4.10045 8.30037 4.28215 8.39122 4.41105 8.29791L8.04621 5.6584C8.07131 5.64031 8.09175 5.61652 8.10585 5.58899C8.11994 5.56145 8.1273 5.53096 8.1273 5.50002C8.1273 5.46909 8.11994 5.4386 8.10585 5.41106C8.09175 5.38353 8.07131 5.35974 8.04621 5.34165V5.34165ZM4.88371 6.98675V4.0133L6.93025 5.50002L4.88371 6.98675V6.98675Z" fill="#71878E"/>
</svg>
